<svg width="19" height="19" viewBox="0 0 19 19" fill="none" xmlns="http://www.w3.org/2000/svg">
<path d="M17.5002 9.16665H15.4335C15.0693 9.16587 14.7149 9.2844 14.4244 9.50412C14.134 9.72384 13.9235 10.0326 13.8252 10.3833L11.8668 17.35C11.8542 17.3933 11.8279 17.4313 11.7918 17.4583C11.7558 17.4854 11.7119 17.5 11.6668 17.5C11.6218 17.5 11.5779 17.4854 11.5418 17.4583C11.5058 17.4313 11.4795 17.3933 11.4668 17.35L6.86683 0.983313C6.85421 0.940039 6.82789 0.902026 6.79183 0.87498C6.75577 0.847933 6.71191 0.833313 6.66683 0.833313C6.62175 0.833313 6.57789 0.847933 6.54183 0.87498C6.50577 0.902026 6.47945 0.940039 6.46683 0.983313L4.5085 7.94998C4.41055 8.29927 4.20131 8.60708 3.91255 8.82666C3.62378 9.04624 3.27126 9.16561 2.9085 9.16665H0.833496" stroke="#0D9E8F" stroke-width="1.66667" stroke-linecap="round" stroke-linejoin="round"/>
</svg>
