<svg width="44" height="44" viewBox="0 0 44 44" fill="none" xmlns="http://www.w3.org/2000/svg">
<path d="M0 11C0 4.92487 4.92487 0 11 0H33C39.0751 0 44 4.92487 44 11V33C44 39.0751 39.0751 44 33 44H11C4.92487 44 0 39.0751 0 33V11Z" fill="#0D9E8F" fill-opacity="0.08"/>
<g clip-path="url(#clip0_4_675)">
<path d="M30.3332 22H28.2665C27.9023 21.9992 27.5479 22.1178 27.2574 22.3375C26.967 22.5572 26.7565 22.866 26.6582 23.2167L24.6998 30.1834C24.6872 30.2266 24.6609 30.2646 24.6248 30.2917C24.5888 30.3187 24.5449 30.3334 24.4998 30.3334C24.4548 30.3334 24.4109 30.3187 24.3748 30.2917C24.3388 30.2646 24.3125 30.2266 24.2998 30.1834L19.6998 13.8167C19.6872 13.7734 19.6609 13.7354 19.6248 13.7084C19.5888 13.6813 19.5449 13.6667 19.4998 13.6667C19.4548 13.6667 19.4109 13.6813 19.3748 13.7084C19.3388 13.7354 19.3125 13.7734 19.2998 13.8167L17.3415 20.7834C17.2436 21.1326 17.0343 21.4405 16.7456 21.66C16.4568 21.8796 16.1043 21.999 15.7415 22H13.6665" stroke="#0D9E8F" stroke-width="1.66667" stroke-linecap="round" stroke-linejoin="round"/>
</g>
<defs>
<clipPath id="clip0_4_675">
<rect width="20" height="20" fill="white" transform="translate(12 12)"/>
</clipPath>
</defs>
</svg>
