<svg width="44" height="44" viewBox="0 0 44 44" fill="none" xmlns="http://www.w3.org/2000/svg">
<path d="M0 11C0 4.92487 4.92487 0 11 0H33C39.0751 0 44 4.92487 44 11V33C44 39.0751 39.0751 44 33 44H11C4.92487 44 0 39.0751 0 33V11Z" fill="#0F2044" fill-opacity="0.06"/>
<path d="M26.9998 29.5C26.9998 27.7319 26.2975 26.0362 25.0472 24.7859C23.797 23.5357 22.1013 22.8333 20.3332 22.8333C18.5651 22.8333 16.8694 23.5357 15.6191 24.7859C14.3689 26.0362 13.6665 27.7319 13.6665 29.5" stroke="#0F2044" stroke-width="1.66667" stroke-linecap="round" stroke-linejoin="round"/>
<path d="M20.3332 22.8333C22.6344 22.8333 24.4998 20.9679 24.4998 18.6667C24.4998 16.3655 22.6344 14.5 20.3332 14.5C18.032 14.5 16.1665 16.3655 16.1665 18.6667C16.1665 20.9679 18.032 22.8333 20.3332 22.8333Z" stroke="#0F2044" stroke-width="1.66667" stroke-linecap="round" stroke-linejoin="round"/>
<path d="M30.3333 28.6666C30.3333 25.8583 28.6667 23.25 27 22C27.5478 21.589 27.9859 21.0492 28.2755 20.4285C28.565 19.8079 28.6971 19.1254 28.66 18.4415C28.6229 17.7576 28.4178 17.0934 28.0629 16.5076C27.7079 15.9219 27.2141 15.4327 26.625 15.0833" stroke="#0F2044" stroke-width="1.66667" stroke-linecap="round" stroke-linejoin="round"/>
</svg>
