<svg width="20" height="20" viewBox="0 0 20 20" fill="none" xmlns="http://www.w3.org/2000/svg">
<path d="M10.4168 18.3334H15.0002C15.4422 18.3334 15.8661 18.1578 16.1787 17.8452C16.4912 17.5326 16.6668 17.1087 16.6668 16.6667V5.83335L12.5002 1.66669H5.00016C4.55814 1.66669 4.13421 1.84228 3.82165 2.15484C3.50909 2.4674 3.3335 2.89133 3.3335 3.33335V11.25" stroke="#F4864A" stroke-width="1.66667" stroke-linecap="round" stroke-linejoin="round"/>
<path d="M11.6665 1.66669V5.00002C11.6665 5.44205 11.8421 5.86597 12.1547 6.17853C12.4672 6.49109 12.8911 6.66669 13.3332 6.66669H16.6665" stroke="#F4864A" stroke-width="1.66667" stroke-linecap="round" stroke-linejoin="round"/>
<path d="M11.1482 13.0217C11.3125 12.8573 11.4429 12.6622 11.5319 12.4474C11.6208 12.2326 11.6666 12.0025 11.6666 11.77C11.6666 11.5375 11.6208 11.3074 11.5319 11.0926C11.4429 10.8778 11.3125 10.6827 11.1482 10.5183C10.9838 10.354 10.7886 10.2236 10.5739 10.1346C10.3591 10.0457 10.1289 9.99988 9.89648 9.99988C9.66403 9.99988 9.43385 10.0457 9.21909 10.1346C9.00433 10.2236 8.80919 10.354 8.64482 10.5183L4.46982 14.695C4.27169 14.893 4.12667 15.1378 4.04815 15.4067L3.35065 17.7983C3.32974 17.87 3.32848 17.9461 3.34702 18.0184C3.36556 18.0908 3.40321 18.1568 3.45602 18.2096C3.50884 18.2624 3.57488 18.3001 3.64724 18.3186C3.7196 18.3372 3.79561 18.3359 3.86732 18.315L6.25898 17.6175C6.52787 17.539 6.77263 17.394 6.97065 17.1958L11.1482 13.0217Z" stroke="#F4864A" stroke-width="1.66667" stroke-linecap="round" stroke-linejoin="round"/>
</svg>
