<svg width="10" height="9" viewBox="0 0 10 9" fill="none" xmlns="http://www.w3.org/2000/svg">
<path d="M9.48438 1.75C9.48438 2.16667 9.34896 2.96875 9.07812 4.15625C8.80729 5.34375 8.50521 6.88542 8.17188 8.78125H7.20312C6.96354 7.23958 6.69271 5.77083 6.39062 4.375C6.09896 2.97917 5.95312 2.10417 5.95312 1.75C5.95312 1.27083 6.09896 0.859375 6.39062 0.515625C6.68229 0.171875 7.125 0 7.71875 0C8.29167 0 8.72917 0.171875 9.03125 0.515625C9.33333 0.859375 9.48438 1.27083 9.48438 1.75ZM3.51562 1.75C3.51562 2.16667 3.38021 2.96875 3.10938 4.15625C2.83854 5.34375 2.53646 6.88542 2.20312 8.78125H1.25C0.96875 7.01042 0.6875 5.5 0.40625 4.25C0.135417 2.98958 0 2.15625 0 1.75C0 1.27083 0.145833 0.859375 0.4375 0.515625C0.729167 0.171875 1.17188 0 1.76562 0C2.32812 0 2.76042 0.171875 3.0625 0.515625C3.36458 0.859375 3.51562 1.27083 3.51562 1.75Z" fill="#0D9E8F"/>
</svg>
